<?xml version="1.0" encoding="UTF-8"?>
<svg id="Warstwa_1" data-name="Warstwa 1" xmlns="http://www.w3.org/2000/svg" version="1.1" viewBox="0 0 2149 411">
  <defs>
    <style>
      .cls-1 {
        fill: #000;
        stroke-width: 0px;
      }

      .cls-2 {
        fill: none;
        stroke: #000;
        stroke-miterlimit: 10;
        stroke-width: 28px;
      }
    </style>
  </defs>
  <g>
    <path class="cls-2" d="M319.5,345c75.34,0,146.48,8.48,209.4,23.52L326.61,18.14c-3.12-5.4-10.9-5.4-14.02,0L110.33,368.47c62.86-15.01,133.93-23.47,209.17-23.47Z"/>
    <path class="cls-2" d="M620.98,383.08l-92.62-254.47c-2.13-5.86-9.8-7.21-13.81-2.43l-183.68,218.9c105.76,1.2,202.76,19.11,279.64,48.35,6.47,2.46,12.83-3.83,10.46-10.34Z"/>
    <path class="cls-2" d="M308.32,345.06L124.65,126.17c-4.01-4.77-11.68-3.42-13.81,2.43L18.25,382.99c-2.37,6.5,3.99,12.8,10.46,10.34,76.89-29.21,173.88-47.08,279.61-48.26Z"/>
  </g>
  <g>
    <path class="cls-1" d="M833.91,213.91c9.81,2.07,18.02,5.56,24.61,10.46,6.59,4.91,11.88,10.72,15.89,17.44,4,6.72,6.91,14.28,8.72,22.67,1.8,8.4,2.71,17.24,2.71,26.54v52.7h-30.22v-52.7c0-7.49-.97-14.72-2.91-21.7-1.94-6.97-4.91-13.11-8.91-18.41-4.01-5.29-8.98-9.62-14.92-12.98-5.95-3.35-12.92-5.29-20.92-5.81-5.95,4.4-10.79,9.05-14.53,13.95-3.75,4.91-5.62,10.46-5.62,16.66v80.99h-30.23V73.25h30.23v135.24c6.71-5.17,13.56-9.94,20.54-14.34,6.98-4.39,13.3-9.11,18.99-14.14,5.68-5.04,10.4-10.66,14.14-16.86,3.74-6.2,5.62-13.56,5.62-22.09v-67.81h30.61v67.81c0,9.3-1.23,17.57-3.68,24.8-2.46,7.24-5.75,13.76-9.88,19.57-4.14,5.81-8.85,11.04-14.14,15.69-5.3,4.65-10.66,8.91-16.08,12.79Z"/>
    <path class="cls-1" d="M1004.8,157.72v-26.35c0-8.26-2.85-15.24-8.52-20.92-5.69-5.68-12.66-8.53-20.92-8.53s-15.31,2.85-21.12,8.53c-5.81,5.68-8.72,12.66-8.72,20.92v154.22c0,8.27,2.91,15.25,8.72,20.92,5.81,5.69,12.85,8.53,21.12,8.53s15.24-2.84,20.92-8.53c5.68-5.68,8.52-12.65,8.52-20.92v-35.26c0-7.49-2.65-13.95-7.94-19.38-5.3-5.42-11.69-8.14-19.18-8.14v-30.23c8,0,15.5,1.49,22.48,4.46,6.98,2.97,13.11,7.11,18.41,12.4,5.29,5.3,9.43,11.43,12.4,18.41,2.97,6.97,4.46,14.47,4.46,22.47v35.26c0,8.27-1.62,16.02-4.84,23.25-3.23,7.24-7.56,13.56-12.98,18.99s-11.76,9.75-18.99,12.98c-7.24,3.23-14.99,4.84-23.25,4.84s-16.08-1.62-23.44-4.84c-7.36-3.23-13.76-7.56-19.18-12.98-5.43-5.42-9.69-11.75-12.79-18.99-3.1-7.23-4.65-14.98-4.65-23.25v-154.22c0-8.26,1.55-16.01,4.65-23.25,3.1-7.23,7.36-13.56,12.79-18.99,5.42-5.42,11.82-9.75,19.18-12.98,7.36-3.23,15.17-4.84,23.44-4.84s16.01,1.62,23.25,4.84c7.23,3.23,13.56,7.56,18.99,12.98s9.75,11.76,12.98,18.99c3.23,7.24,4.84,14.99,4.84,23.25v26.35h-30.61Z"/>
    <path class="cls-1" d="M1124.53,73.63c8.26,0,16.08,1.55,23.44,4.65,7.36,3.1,13.76,7.36,19.18,12.79s9.69,11.82,12.79,19.18,4.65,15.18,4.65,23.44v49.6c0,8.01-1.81,15.37-5.42,22.09-3.62,6.72-8.27,12.79-13.95,18.21-5.69,5.42-11.89,10.27-18.6,14.53-6.72,4.26-13.31,7.88-19.76,10.85-6.46,2.97-12.21,5.42-17.24,7.36-5.04,1.94-8.59,3.17-10.66,3.68v83.7h-30.23V73.63h55.8ZM1154.37,133.7c0-8.26-2.91-15.31-8.72-21.12s-12.85-8.72-21.12-8.72h-25.57v124c5.68-2.06,11.75-4.71,18.21-7.94,6.45-3.23,12.46-6.78,18.02-10.66,5.55-3.88,10.14-8,13.76-12.4,3.61-4.39,5.42-8.91,5.42-13.56v-49.6Z"/>
    <path class="cls-1" d="M1399.26,73.63v30.22h-44.56v239.86h-30.23V103.86h-44.56v-30.22h119.35Z"/>
    <path class="cls-1" d="M1470.18,132.92v28.29h-15.5c-8.27,0-15.44,2.97-21.51,8.91-6.07,5.95-9.11,13.17-9.11,21.7v151.9h-28.29v-151.9c0-8.26,1.55-15.95,4.65-23.06,3.1-7.1,7.3-13.3,12.59-18.6s11.56-9.49,18.79-12.59c7.23-3.1,14.85-4.65,22.86-4.65h15.5Z"/>
    <path class="cls-1" d="M1543.41,132.92c8.26,0,15.95,1.55,23.06,4.65,7.1,3.1,13.3,7.36,18.6,12.79,5.29,5.42,9.49,11.69,12.59,18.79,3.1,7.11,4.65,14.79,4.65,23.06v96.1c0,8.01-1.55,15.63-4.65,22.86-3.1,7.24-7.3,13.5-12.59,18.79s-11.5,9.49-18.6,12.59c-7.11,3.1-14.79,4.65-23.06,4.65s-15.63-1.55-22.86-4.65c-7.24-3.1-13.5-7.3-18.79-12.59-5.3-5.29-9.49-11.56-12.59-18.79-3.1-7.23-4.65-14.85-4.65-22.86v-23.64c0-8.26,1.55-15.95,4.65-23.06,3.1-7.1,7.3-13.3,12.59-18.6s11.56-9.49,18.79-12.59c7.23-3.1,14.85-4.65,22.86-4.65,12.65,0,22.86,3.88,30.61,11.62v-25.19c0-8.52-2.97-15.75-8.91-21.7-5.95-5.94-13.18-8.91-21.7-8.91-4.65,0-8.59.91-11.82,2.71-3.23,1.81-5.95,4.13-8.14,6.97-2.2,2.85-3.81,6.14-4.84,9.88-1.04,3.75-1.55,7.43-1.55,11.04v7.75h-28.67v-7.75c0-8.52,1.42-16.4,4.26-23.64,2.84-7.23,6.71-13.5,11.62-18.79,4.9-5.29,10.72-9.43,17.44-12.4,6.71-2.97,13.95-4.46,21.7-4.46ZM1574.03,264.67c0-8.26-2.97-15.43-8.91-21.51-5.95-6.07-13.18-9.11-21.7-9.11s-15.44,3.04-21.51,9.11c-6.07,6.07-9.11,13.24-9.11,21.51v23.64c0,8.27,3.03,15.44,9.11,21.51,6.07,6.07,13.24,9.11,21.51,9.11s15.75-3.03,21.7-9.11c5.94-6.07,8.91-13.24,8.91-21.51v-23.64Z"/>
    <path class="cls-1" d="M1721.66,199.96v-7.75c0-8.52-2.97-15.75-8.91-21.7-5.95-5.94-13.17-8.91-21.7-8.91s-15.44,2.97-21.51,8.91c-6.07,5.95-9.11,13.17-9.11,21.7v94.55c0,8.27,3.03,15.44,9.11,21.51,6.07,6.07,13.24,9.11,21.51,9.11s15.75-3.03,21.7-9.11c5.94-6.07,8.91-13.24,8.91-21.51v-7.75h28.29v7.75c0,8.01-1.55,15.63-4.65,22.86-3.1,7.24-7.3,13.5-12.59,18.79-5.3,5.3-11.5,9.49-18.6,12.59-7.11,3.1-14.79,4.65-23.06,4.65s-15.63-1.55-22.86-4.65c-7.24-3.1-13.5-7.3-18.79-12.59-5.3-5.29-9.49-11.56-12.59-18.79-3.1-7.23-4.65-14.85-4.65-22.86v-94.55c0-8.26,1.55-15.95,4.65-23.06,3.1-7.1,7.3-13.37,12.59-18.79,5.29-5.42,11.56-9.69,18.79-12.79,7.23-3.1,14.85-4.65,22.86-4.65s15.95,1.55,23.06,4.65c7.1,3.1,13.3,7.36,18.6,12.79,5.29,5.42,9.49,11.69,12.59,18.79,3.1,7.11,4.65,14.79,4.65,23.06v7.75h-28.29Z"/>
    <path class="cls-1" d="M1853.8,229.41c16.01,6.98,28.41,17.44,37.2,31.39,8.78,13.95,13.18,30.49,13.18,49.6v33.33h-28.29v-33.33c0-14.2-2.85-25.44-8.52-33.71-5.69-8.26-12.34-14.46-19.96-18.6-7.62-4.13-15.31-6.78-23.06-7.94s-13.82-1.74-18.21-1.74v95.33h-28.29V60.85h28.29v156.16c5.43-.78,11.43-2.26,18.02-4.46,6.59-2.19,12.72-5.62,18.41-10.27,5.68-4.65,10.4-10.72,14.14-18.21,3.74-7.49,5.62-16.92,5.62-28.29v-22.86h28.29v22.86c0,16.28-3.23,30.68-9.69,43.21-6.46,12.53-15.5,22.67-27.12,30.42Z"/>
    <path class="cls-1" d="M1956.87,273.19v13.18c0,8.79,2.77,16.15,8.33,22.09,5.55,5.95,12.46,8.91,20.73,8.91s15.17-2.97,20.73-8.91c5.55-5.94,8.33-13.3,8.33-22.09v-7.36h28.29v7.36c0,8.27-1.49,16.02-4.46,23.25-2.97,7.24-7.04,13.5-12.21,18.79-5.17,5.3-11.24,9.49-18.21,12.59-6.98,3.1-14.47,4.65-22.48,4.65s-15.5-1.55-22.47-4.65c-6.98-3.1-13.05-7.3-18.21-12.59-5.17-5.29-9.24-11.56-12.21-18.79-2.97-7.23-4.46-14.98-4.46-23.25v-94.55c0-8.26,1.55-15.95,4.65-23.06,3.1-7.1,7.36-13.37,12.79-18.79,5.42-5.42,11.75-9.69,18.99-12.79,7.23-3.1,14.85-4.65,22.86-4.65s15.95,1.55,23.06,4.65c7.1,3.1,13.37,7.36,18.79,12.79s9.69,11.69,12.79,18.79c3.1,7.11,4.65,14.79,4.65,23.06v7.36c0,8.79-2.26,16.86-6.78,24.22-4.52,7.36-10.66,12.98-18.41,16.86l-65.1,32.94ZM1956.87,241.42l52.31-26.35c6.45-3.35,9.69-8.65,9.69-15.89v-7.36c0-8.53-3.04-15.82-9.11-21.89-6.07-6.07-13.37-9.11-21.89-9.11s-15.83,3.04-21.89,9.11c-6.07,6.07-9.11,13.37-9.11,21.89v49.6Z"/>
    <path class="cls-1" d="M2149.06,132.92v28.29h-15.5c-8.27,0-15.44,2.97-21.51,8.91-6.07,5.95-9.11,13.17-9.11,21.7v151.9h-28.29v-151.9c0-8.26,1.55-15.95,4.65-23.06,3.1-7.1,7.3-13.3,12.59-18.6s11.56-9.49,18.79-12.59c7.23-3.1,14.85-4.65,22.86-4.65h15.5Z"/>
  </g>
</svg>